<svg width="1308" height="164" viewBox="0 0 1308 164" fill="none" xmlns="http://www.w3.org/2000/svg">
<path d="M351.922 99.2594C357.167 100.237 361.479 102.86 364.857 107.127C368.235 111.395 369.925 116.284 369.925 121.796C369.925 126.775 368.68 131.175 366.191 134.998C363.79 138.732 360.279 141.666 355.656 143.8C351.033 145.933 345.565 147 339.253 147H299.114V53.9191H337.52C343.832 53.9191 349.255 54.9415 353.789 56.9862C358.412 59.031 361.879 61.8759 364.19 65.5209C366.591 69.1659 367.791 73.2998 367.791 77.9228C367.791 83.3458 366.324 87.8799 363.39 91.5249C360.545 95.1699 356.723 97.748 351.922 99.2594ZM317.783 92.325H334.852C339.298 92.325 342.72 91.347 345.121 89.3912C347.521 87.3464 348.721 84.4571 348.721 80.7232C348.721 76.9893 347.521 74.1 345.121 72.0552C342.72 70.0105 339.298 68.9881 334.852 68.9881H317.783V92.325ZM336.586 131.798C341.12 131.798 344.632 130.731 347.121 128.597C349.699 126.464 350.988 123.441 350.988 119.529C350.988 115.529 349.655 112.417 346.988 110.194C344.321 107.883 340.72 106.727 336.186 106.727H317.783V131.798H336.586ZM403.473 84.5905C405.874 80.6787 408.985 77.6116 412.808 75.3891C416.72 73.1665 421.165 72.0552 426.144 72.0552V91.6582H421.209C415.342 91.6582 410.897 93.0362 407.874 95.7922C404.94 98.5481 403.473 103.349 403.473 110.194V147H384.804V73.122H403.473V84.5905ZM433.918 109.794C433.918 102.327 435.385 95.7033 438.318 89.9246C441.341 84.1459 445.386 79.7008 450.454 76.5892C455.61 73.4777 461.344 71.9219 467.656 71.9219C473.168 71.9219 477.969 73.0331 482.058 75.2557C486.237 77.4783 489.571 80.2787 492.06 83.657V73.122H510.863V147H492.06V136.198C489.659 139.666 486.326 142.555 482.058 144.866C477.88 147.089 473.035 148.2 467.523 148.2C461.3 148.2 455.61 146.6 450.454 143.399C445.386 140.199 441.341 135.709 438.318 129.931C435.385 124.063 433.918 117.351 433.918 109.794ZM492.06 110.061C492.06 105.527 491.171 101.66 489.393 98.4592C487.615 95.1699 485.214 92.6806 482.192 90.9914C479.169 89.2134 475.924 88.3244 472.457 88.3244C468.99 88.3244 465.789 89.1689 462.855 90.8581C459.922 92.5472 457.521 95.0365 455.654 98.3259C453.876 101.526 452.987 105.349 452.987 109.794C452.987 114.239 453.876 118.151 455.654 121.529C457.521 124.819 459.922 127.353 462.855 129.131C465.878 130.909 469.079 131.798 472.457 131.798C475.924 131.798 479.169 130.953 482.192 129.264C485.214 127.486 487.615 124.997 489.393 121.796C491.171 118.507 492.06 114.595 492.06 110.061ZM524.296 110.061C524.296 102.415 525.852 95.7477 528.963 90.058C532.075 84.2793 536.387 79.8342 541.899 76.7226C547.411 73.5221 553.723 71.9219 560.835 71.9219C569.992 71.9219 577.549 74.2333 583.505 78.8562C589.55 83.3903 593.596 89.7913 595.64 98.0592H575.504C574.437 94.8587 572.615 92.3694 570.036 90.5914C567.547 88.7244 564.435 87.7909 560.702 87.7909C555.367 87.7909 551.145 89.7468 548.033 93.6585C544.921 97.4813 543.366 102.949 543.366 110.061C543.366 117.084 544.921 122.552 548.033 126.464C551.145 130.286 555.367 132.198 560.702 132.198C568.258 132.198 573.192 128.819 575.504 122.063H595.64C593.596 130.064 589.55 136.421 583.505 141.132C577.46 145.844 569.903 148.2 560.835 148.2C553.723 148.2 547.411 146.644 541.899 143.533C536.387 140.332 532.075 135.887 528.963 130.197C525.852 124.419 524.296 117.707 524.296 110.061ZM653.057 147L627.987 115.529V147H609.317V48.3183H627.987V104.46L652.791 73.122H677.061L644.523 110.194L677.328 147H653.057ZM755.871 108.461C755.871 111.128 755.693 113.528 755.338 115.662H701.329C701.774 120.996 703.641 125.174 706.93 128.197C710.22 131.22 714.265 132.731 719.065 132.731C726 132.731 730.934 129.753 733.868 123.796H754.004C751.87 130.909 747.781 136.776 741.736 141.399C735.69 145.933 728.267 148.2 719.465 148.2C712.353 148.2 705.952 146.644 700.263 143.533C694.662 140.332 690.261 135.843 687.06 130.064C683.949 124.285 682.393 117.618 682.393 110.061C682.393 102.415 683.949 95.7033 687.06 89.9246C690.172 84.1459 694.528 79.7008 700.129 76.5892C705.73 73.4777 712.175 71.9219 719.465 71.9219C726.489 71.9219 732.756 73.4332 738.268 76.4559C743.869 79.4786 748.181 83.7903 751.204 89.3912C754.315 94.9031 755.871 101.26 755.871 108.461ZM736.535 103.127C736.446 98.3259 734.712 94.5031 731.334 91.6582C727.956 88.7244 723.822 87.2575 718.932 87.2575C714.309 87.2575 710.397 88.68 707.197 91.5249C704.085 94.2808 702.174 98.1481 701.463 103.127H736.535ZM791.235 88.4577V124.197C791.235 126.686 791.813 128.508 792.968 129.664C794.213 130.731 796.258 131.264 799.103 131.264H807.771V147H796.035C780.3 147 772.432 139.354 772.432 124.063V88.4577H763.631V73.122H772.432V54.8526H791.235V73.122H807.771V88.4577H791.235ZM977.393 53.9191L951.389 147H929.386L911.917 80.7232L893.647 147L871.777 147.133L846.707 53.9191H866.71L883.112 126.197L902.049 53.9191H922.852L940.721 125.797L957.257 53.9191H977.393ZM999.052 64.3207C995.763 64.3207 993.007 63.2983 990.784 61.2536C988.65 59.1199 987.583 56.4973 987.583 53.3857C987.583 50.2741 988.65 47.6959 990.784 45.6512C993.007 43.5175 995.763 42.4507 999.052 42.4507C1002.34 42.4507 1005.05 43.5175 1007.19 45.6512C1009.41 47.6959 1010.52 50.2741 1010.52 53.3857C1010.52 56.4973 1009.41 59.1199 1007.19 61.2536C1005.05 63.2983 1002.34 64.3207 999.052 64.3207ZM1008.25 73.122V147H989.584V73.122H1008.25ZM1043.77 131.664H1076.71V147H1022.56V131.931L1054.84 88.4577H1022.7V73.122H1076.31V88.191L1043.77 131.664ZM1086.36 109.794C1086.36 102.327 1087.83 95.7033 1090.76 89.9246C1093.78 84.1459 1097.83 79.7008 1102.9 76.5892C1108.05 73.4777 1113.79 71.9219 1120.1 71.9219C1125.61 71.9219 1130.41 73.0331 1134.5 75.2557C1138.68 77.4783 1142.01 80.2787 1144.5 83.657V73.122H1163.31V147H1144.5V136.198C1142.1 139.666 1138.77 142.555 1134.5 144.866C1130.32 147.089 1125.48 148.2 1119.97 148.2C1113.74 148.2 1108.05 146.6 1102.9 143.399C1097.83 140.199 1093.78 135.709 1090.76 129.931C1087.83 124.063 1086.36 117.351 1086.36 109.794ZM1144.5 110.061C1144.5 105.527 1143.61 101.66 1141.84 98.4592C1140.06 95.1699 1137.66 92.6806 1134.64 90.9914C1131.61 89.2134 1128.37 88.3244 1124.9 88.3244C1121.43 88.3244 1118.23 89.1689 1115.3 90.8581C1112.37 92.5472 1109.96 95.0365 1108.1 98.3259C1106.32 101.526 1105.43 105.349 1105.43 109.794C1105.43 114.239 1106.32 118.151 1108.1 121.529C1109.96 124.819 1112.37 127.353 1115.3 129.131C1118.32 130.909 1121.52 131.798 1124.9 131.798C1128.37 131.798 1131.61 130.953 1134.64 129.264C1137.66 127.486 1140.06 124.997 1141.84 121.796C1143.61 118.507 1144.5 114.595 1144.5 110.061ZM1200.21 84.5905C1202.61 80.6787 1205.72 77.6116 1209.54 75.3891C1213.46 73.1665 1217.9 72.0552 1222.88 72.0552V91.6582H1217.95C1212.08 91.6582 1207.63 93.0362 1204.61 95.7922C1201.68 98.5481 1200.21 103.349 1200.21 110.194V147H1181.54V73.122H1200.21V84.5905ZM1230.65 109.794C1230.65 102.327 1232.12 95.7033 1235.05 89.9246C1238.08 84.1459 1242.17 79.7008 1247.32 76.5892C1252.48 73.4777 1258.21 71.9219 1264.53 71.9219C1269.33 71.9219 1273.91 72.9887 1278.26 75.1223C1282.62 77.1671 1286.08 79.9231 1288.66 83.3903V48.3183H1307.6V147H1288.66V136.065C1286.35 139.71 1283.11 142.644 1278.93 144.866C1274.75 147.089 1269.9 148.2 1264.39 148.2C1258.17 148.2 1252.48 146.6 1247.32 143.399C1242.17 140.199 1238.08 135.709 1235.05 129.931C1232.12 124.063 1230.65 117.351 1230.65 109.794ZM1288.8 110.061C1288.8 105.527 1287.91 101.66 1286.13 98.4592C1284.35 95.1699 1281.95 92.6806 1278.93 90.9914C1275.91 89.2134 1272.66 88.3244 1269.19 88.3244C1265.73 88.3244 1262.53 89.1689 1259.59 90.8581C1256.66 92.5472 1254.26 95.0365 1252.39 98.3259C1250.61 101.526 1249.72 105.349 1249.72 109.794C1249.72 114.239 1250.61 118.151 1252.39 121.529C1254.26 124.819 1256.66 127.353 1259.59 129.131C1262.61 130.909 1265.81 131.798 1269.19 131.798C1272.66 131.798 1275.91 130.953 1278.93 129.264C1281.95 127.486 1284.35 124.997 1286.13 121.796C1287.91 118.507 1288.8 114.595 1288.8 110.061Z" fill="black"/>
<path d="M154.686 26.3186L158.914 107.753L103.774 90.0161L154.686 26.3186Z" fill="#583BFF"/>
<line x1="94.1662" y1="99.7738" x2="160.867" y2="9.04143" stroke="black" stroke-width="15.4035"/>
<line x1="159.594" y1="111.284" x2="159.741" y2="13.5645" stroke="black" stroke-width="15.4035"/>
<ellipse cx="124.241" cy="117.264" rx="66.7617" ry="23.1253" transform="rotate(12.8787 124.241 117.264)" fill="black"/>
<ellipse cx="124.36" cy="117.555" rx="40.2394" ry="8.44576" transform="rotate(12.8787 124.36 117.555)" fill="#583BFF"/>
<path d="M139.375 69.1491C140.453 68.2532 142.097 68.7739 142.463 70.1275L143.705 74.717C143.831 75.1827 144.127 75.5842 144.535 75.8419L148.554 78.3816C149.739 79.1307 149.752 80.8551 148.578 81.6216L144.597 84.2205C144.193 84.4843 143.903 84.8901 143.783 85.3576L142.61 89.9649C142.264 91.3238 140.628 91.8688 139.536 90.9889L135.834 88.0057C135.458 87.7029 134.983 87.5523 134.501 87.5835L129.757 87.8912C128.358 87.9819 127.334 86.5944 127.833 85.2841L129.526 80.8414C129.698 80.3906 129.694 79.8917 129.516 79.4434L127.757 75.0263C127.239 73.7235 128.242 72.321 129.642 72.391L134.391 72.6286C134.873 72.6527 135.346 72.495 135.717 72.1867L139.375 69.1491Z" fill="#F7E28D"/>
<line y1="-8.13349" x2="45.7508" y2="-8.13349" transform="matrix(1 0 0 -1 -4.57764e-05 117.146)" stroke="black" stroke-width="16.267"/>
<line y1="-8.13349" x2="40.6674" y2="-8.13349" transform="matrix(-1 8.74228e-08 8.74228e-08 1 81.5381 159.237)" stroke="black" stroke-width="16.267"/>
<line y1="-8.13349" x2="32.5339" y2="-8.13349" transform="matrix(-1 8.74228e-08 8.74228e-08 1 76.2148 55.2744)" stroke="black" stroke-width="16.267"/>
<line y1="-8.13349" x2="61.0011" y2="-8.13349" transform="matrix(-4.37114e-08 1 1 4.37114e-08 45.7509 98.2356)" stroke="black" stroke-width="16.267"/>
<line y1="-8.13349" x2="61.0011" y2="-8.13349" transform="matrix(-4.37114e-08 1 1 4.37114e-08 45.7508 39.0074)" stroke="black" stroke-width="16.267"/>
<line y1="-8.13349" x2="61.0011" y2="-8.13349" transform="matrix(-4.37114e-08 1 1 4.37114e-08 45.7509 39.8939)" stroke="black" stroke-width="16.267"/>
<line y1="-8.13349" x2="45.7508" y2="-8.13349" transform="matrix(-1 0 0 1 267.045 80.9857)" stroke="black" stroke-width="16.267"/>
<line y1="-8.13349" x2="40.6674" y2="-8.13349" transform="matrix(1 -8.74228e-08 -8.74228e-08 -1 185.506 38.8948)" stroke="black" stroke-width="16.267"/>
<line y1="-8.13349" x2="32.5339" y2="-8.13349" transform="matrix(1 -8.74228e-08 -8.74228e-08 -1 190.83 142.857)" stroke="black" stroke-width="16.267"/>
<line y1="-8.13349" x2="61.0011" y2="-8.13349" transform="matrix(4.37114e-08 -1 -1 -4.37114e-08 221.294 99.896)" stroke="black" stroke-width="16.267"/>
<line y1="-8.13349" x2="61.0011" y2="-8.13349" transform="matrix(4.37114e-08 -1 -1 -4.37114e-08 221.294 159.124)" stroke="black" stroke-width="16.267"/>
<line y1="-8.13349" x2="61.0011" y2="-8.13349" transform="matrix(4.37114e-08 -1 -1 -4.37114e-08 221.294 158.238)" stroke="black" stroke-width="16.267"/>
</svg>
