<svg width="618" height="370" viewBox="0 0 618 370" fill="none" xmlns="http://www.w3.org/2000/svg">
<path d="M363.968 59.3741L373.507 243.087L249.112 203.074L363.968 59.3741Z" fill="#583BFF"/>
<line x1="227.437" y1="225.087" x2="377.912" y2="20.3973" stroke="black" stroke-width="34.7498"/>
<line x1="375.041" y1="251.053" x2="375.373" y2="30.6013" stroke="black" stroke-width="34.7498"/>
<ellipse cx="295.285" cy="264.545" rx="150.613" ry="52.1701" transform="rotate(12.8787 295.285 264.545)" fill="black"/>
<ellipse cx="295.553" cy="265.2" rx="90.7792" ry="19.0534" transform="rotate(12.8787 295.553 265.2)" fill="#583BFF"/>
<path d="M329.426 155.999C331.859 153.978 335.568 155.152 336.394 158.206L339.195 168.56C339.479 169.61 340.147 170.516 341.067 171.097L350.135 176.827C352.809 178.517 352.838 182.407 350.189 184.136L341.207 190C340.296 190.594 339.641 191.51 339.372 192.565L336.725 202.959C335.944 206.024 332.253 207.254 329.79 205.269L321.438 198.539C320.591 197.856 319.518 197.516 318.432 197.586L307.729 198.28C304.572 198.485 302.262 195.355 303.388 192.399L307.208 182.376C307.596 181.359 307.588 180.234 307.185 179.222L303.217 169.258C302.047 166.319 304.311 163.154 307.47 163.312L318.182 163.848C319.269 163.903 320.337 163.547 321.175 162.852L329.426 155.999Z" fill="#F7E28D"/>
<line y1="265.172" x2="103.213" y2="265.172" stroke="black" stroke-width="36.6979"/>
<line x1="183.948" y1="104.936" x2="92.2035" y2="104.936" stroke="black" stroke-width="36.6979"/>
<line x1="172.939" y1="343.472" x2="99.5431" y2="343.472" stroke="black" stroke-width="36.6979"/>
<line x1="84.8639" y1="224.204" x2="84.8639" y2="86.5867" stroke="black" stroke-width="36.6979"/>
<line x1="84.8639" y1="361.821" x2="84.8639" y2="224.204" stroke="black" stroke-width="36.6979"/>
<line x1="84.8639" y1="361.821" x2="84.8639" y2="224.204" stroke="black" stroke-width="36.6979"/>
<line y1="-18.349" x2="103.213" y2="-18.349" transform="matrix(-1 0 0 1 617.446 180.702)" stroke="black" stroke-width="36.6979"/>
<line y1="-18.349" x2="91.7448" y2="-18.349" transform="matrix(1 -8.74228e-08 -8.74228e-08 -1 433.498 85.7458)" stroke="black" stroke-width="36.6979"/>
<line y1="-18.349" x2="73.3958" y2="-18.349" transform="matrix(1 -8.74228e-08 -8.74228e-08 -1 444.507 324.282)" stroke="black" stroke-width="36.6979"/>
<line y1="-18.349" x2="137.617" y2="-18.349" transform="matrix(4.37114e-08 -1 -1 -4.37114e-08 514.233 223.363)" stroke="black" stroke-width="36.6979"/>
<line y1="-18.349" x2="137.617" y2="-18.349" transform="matrix(4.37114e-08 -1 -1 -4.37114e-08 514.233 360.98)" stroke="black" stroke-width="36.6979"/>
<line y1="-18.349" x2="137.617" y2="-18.349" transform="matrix(4.37114e-08 -1 -1 -4.37114e-08 514.233 360.98)" stroke="black" stroke-width="36.6979"/>
</svg>
