<svg width="603" height="370" viewBox="0 0 603 370" fill="none" xmlns="http://www.w3.org/2000/svg">
<path d="M348.968 59.374L358.507 243.087L234.112 203.074L348.968 59.374Z" fill="#583BFF"/>
<line x1="212.437" y1="225.087" x2="362.912" y2="20.3973" stroke="#1D1D1D" stroke-width="34.7498"/>
<line x1="360.041" y1="251.053" x2="360.373" y2="30.6013" stroke="#1D1D1D" stroke-width="34.7498"/>
<ellipse cx="280.285" cy="264.545" rx="150.613" ry="52.1701" transform="rotate(12.8787 280.285 264.545)" fill="#1D1D1D"/>
<ellipse cx="280.553" cy="265.2" rx="90.7792" ry="19.0534" transform="rotate(12.8787 280.553 265.2)" fill="#583BFF"/>
<path d="M314.426 155.999C316.859 153.978 320.568 155.152 321.394 158.206L324.195 168.56C324.479 169.61 325.147 170.516 326.067 171.097L335.135 176.827C337.809 178.517 337.838 182.407 335.189 184.136L326.207 190C325.296 190.594 324.641 191.51 324.372 192.565L321.725 202.959C320.944 206.024 317.253 207.254 314.79 205.269L306.438 198.539C305.591 197.856 304.518 197.516 303.432 197.586L292.729 198.28C289.572 198.485 287.262 195.355 288.388 192.399L292.208 182.376C292.596 181.359 292.588 180.234 292.185 179.222L288.217 169.258C287.047 166.319 289.311 163.154 292.47 163.312L303.182 163.848C304.269 163.903 305.337 163.547 306.175 162.852L314.426 155.999Z" fill="#F7E28D"/>
<line y1="-18.349" x2="103.213" y2="-18.349" transform="matrix(1 0 0 -1 -6.10352e-05 264.279)" stroke="#1D1D1D" stroke-width="36.6979"/>
<line y1="-18.349" x2="91.7448" y2="-18.349" transform="matrix(-1 8.74228e-08 8.74228e-08 1 183.948 359.234)" stroke="#1D1D1D" stroke-width="36.6979"/>
<line y1="-18.349" x2="73.3958" y2="-18.349" transform="matrix(-1 8.74228e-08 8.74228e-08 1 171.939 124.698)" stroke="#1D1D1D" stroke-width="36.6979"/>
<line y1="-18.349" x2="137.617" y2="-18.349" transform="matrix(-4.37114e-08 1 1 4.37114e-08 103.213 221.617)" stroke="#1D1D1D" stroke-width="36.6979"/>
<line y1="-18.349" x2="137.617" y2="-18.349" transform="matrix(-4.37114e-08 1 1 4.37114e-08 103.213 87.9998)" stroke="#1D1D1D" stroke-width="36.6979"/>
<line y1="-18.349" x2="137.617" y2="-18.349" transform="matrix(-4.37114e-08 1 1 4.37114e-08 103.213 89.9998)" stroke="#1D1D1D" stroke-width="36.6979"/>
<line y1="-18.349" x2="103.213" y2="-18.349" transform="matrix(-1 0 0 1 602.446 182.702)" stroke="#1D1D1D" stroke-width="36.6979"/>
<line y1="-18.349" x2="91.7448" y2="-18.349" transform="matrix(1 -8.74228e-08 -8.74228e-08 -1 418.498 87.7458)" stroke="#1D1D1D" stroke-width="36.6979"/>
<line y1="-18.349" x2="73.3958" y2="-18.349" transform="matrix(1 -8.74228e-08 -8.74228e-08 -1 430.507 322.282)" stroke="#1D1D1D" stroke-width="36.6979"/>
<line y1="-18.349" x2="137.617" y2="-18.349" transform="matrix(4.37114e-08 -1 -1 -4.37114e-08 499.233 225.363)" stroke="#1D1D1D" stroke-width="36.6979"/>
<line y1="-18.349" x2="137.617" y2="-18.349" transform="matrix(4.37114e-08 -1 -1 -4.37114e-08 499.233 358.98)" stroke="#1D1D1D" stroke-width="36.6979"/>
<line y1="-18.349" x2="137.617" y2="-18.349" transform="matrix(4.37114e-08 -1 -1 -4.37114e-08 499.233 356.98)" stroke="#1D1D1D" stroke-width="36.6979"/>
</svg>
