<svg width="839" height="98" viewBox="0 0 839 98" fill="none" xmlns="http://www.w3.org/2000/svg">
<path d="M215.425 58.8769C218.845 59.5144 221.656 61.2241 223.858 64.0061C226.06 66.7881 227.162 69.9757 227.162 73.5691C227.162 76.8147 226.35 79.6836 224.727 82.1757C223.163 84.61 220.873 86.5226 217.86 87.9135C214.846 89.3045 211.281 90 207.166 90H180.999V29.3186H206.036C210.151 29.3186 213.687 29.9851 216.642 31.3181C219.656 32.6511 221.917 34.5058 223.423 36.882C224.988 39.2583 225.771 41.9533 225.771 44.9671C225.771 48.5025 224.814 51.4583 222.902 53.8346C221.047 56.2108 218.555 57.8916 215.425 58.8769ZM193.17 54.3562H204.297C207.195 54.3562 209.427 53.7187 210.992 52.4436C212.556 51.1106 213.339 49.227 213.339 46.7927C213.339 44.3585 212.556 42.4749 210.992 41.1419C209.427 39.8089 207.195 39.1424 204.297 39.1424H193.17V54.3562ZM205.428 80.0893C208.383 80.0893 210.673 79.3938 212.296 78.0028C213.976 76.6118 214.817 74.6413 214.817 72.0912C214.817 69.4831 213.947 67.4546 212.209 66.0056C210.47 64.4987 208.123 63.7453 205.167 63.7453H193.17V80.0893H205.428ZM249.033 49.3139C250.598 46.7638 252.626 44.7642 255.118 43.3153C257.669 41.8664 260.566 41.1419 263.812 41.1419V53.9215H260.595C256.77 53.9215 253.872 54.8198 251.902 56.6165C249.989 58.4132 249.033 61.5429 249.033 66.0056V90H236.862V41.8374H249.033V49.3139ZM268.88 65.7448C268.88 60.8764 269.836 56.5586 271.749 52.7913C273.72 49.0241 276.357 46.1262 279.66 44.0977C283.022 42.0692 286.76 41.055 290.875 41.055C294.468 41.055 297.598 41.7794 300.264 43.2284C302.988 44.6773 305.162 46.503 306.784 48.7053V41.8374H319.042V90H306.784V82.9582C305.219 85.2185 303.046 87.1021 300.264 88.609C297.54 90.058 294.381 90.7824 290.788 90.7824C286.731 90.7824 283.022 89.7392 279.66 87.6527C276.357 85.5663 273.72 82.6394 271.749 78.8722C269.836 75.047 268.88 70.6712 268.88 65.7448ZM306.784 65.9187C306.784 62.9629 306.205 60.4417 305.046 58.3552C303.886 56.2108 302.322 54.588 300.351 53.4868C298.38 52.3277 296.265 51.7481 294.005 51.7481C291.744 51.7481 289.658 52.2987 287.745 53.3999C285.833 54.5011 284.268 56.1239 283.051 58.2683C281.892 60.3548 281.312 62.8469 281.312 65.7448C281.312 68.6427 281.892 71.1928 283.051 73.3952C284.268 75.5396 285.833 77.1914 287.745 78.3506C289.716 79.5097 291.802 80.0893 294.005 80.0893C296.265 80.0893 298.38 79.5387 300.351 78.4375C302.322 77.2783 303.886 75.6555 305.046 73.5691C306.205 71.4246 306.784 68.8745 306.784 65.9187ZM327.8 65.9187C327.8 60.9344 328.814 56.5875 330.843 52.8783C332.871 49.111 335.682 46.2132 339.275 44.1847C342.869 42.0982 346.984 41.055 351.62 41.055C357.59 41.055 362.516 42.5618 366.399 45.5756C370.341 48.5315 372.978 52.7044 374.311 58.0944H361.183C360.488 56.008 359.3 54.3852 357.619 53.226C355.996 52.0089 353.968 51.4004 351.533 51.4004C348.056 51.4004 345.303 52.6754 343.274 55.2255C341.246 57.7177 340.232 61.2821 340.232 65.9187C340.232 70.4973 341.246 74.0617 343.274 76.6118C345.303 79.104 348.056 80.3501 351.533 80.3501C356.46 80.3501 359.676 78.1477 361.183 73.7429H374.311C372.978 78.9591 370.341 83.1031 366.399 86.1748C362.458 89.2466 357.532 90.7824 351.62 90.7824C346.984 90.7824 342.869 89.7682 339.275 87.7397C335.682 85.6532 332.871 82.7553 330.843 79.046C328.814 75.2788 327.8 70.903 327.8 65.9187ZM411.742 90L395.398 69.4831V90H383.227V25.6673H395.398V62.2674L411.568 41.8374H427.391L406.178 66.0056L427.564 90H411.742ZM478.768 64.8755C478.768 66.6142 478.653 68.179 478.421 69.57H443.212C443.501 73.0475 444.718 75.7715 446.863 77.742C449.007 79.7126 451.644 80.6978 454.774 80.6978C459.295 80.6978 462.511 78.7563 464.424 74.8731H477.551C476.16 79.5097 473.494 83.3349 469.553 86.3487C465.612 89.3045 460.773 90.7824 455.035 90.7824C450.398 90.7824 446.225 89.7682 442.516 87.7397C438.865 85.6532 435.996 82.7263 433.909 78.9591C431.881 75.1919 430.867 70.8451 430.867 65.9187C430.867 60.9344 431.881 56.5586 433.909 52.7913C435.938 49.0241 438.778 46.1262 442.429 44.0977C446.08 42.0692 450.282 41.055 455.035 41.055C459.614 41.055 463.7 42.0402 467.293 44.0108C470.944 45.9813 473.755 48.7923 475.726 52.4436C477.754 56.0369 478.768 60.1809 478.768 64.8755ZM466.163 61.398C466.105 58.2683 464.975 55.7761 462.772 53.9215C460.57 52.0089 457.875 51.0526 454.687 51.0526C451.673 51.0526 449.123 51.9799 447.037 53.8346C445.008 55.6312 443.762 58.1524 443.299 61.398H466.163ZM501.823 51.835V75.1339C501.823 76.7567 502.2 77.9449 502.953 78.6983C503.764 79.3938 505.097 79.7415 506.952 79.7415H512.603V90H504.953C494.694 90 489.565 85.0157 489.565 75.047V51.835H483.827V41.8374H489.565V29.9271H501.823V41.8374H512.603V51.835H501.823ZM623.184 29.3186L606.231 90H591.887L580.498 46.7927L568.588 90L554.33 90.0869L537.986 29.3186H551.027L561.72 76.438L574.065 29.3186H587.627L599.276 76.1772L610.056 29.3186H623.184ZM637.303 36.0996C635.159 36.0996 633.362 35.4331 631.913 34.1001C630.522 32.7091 629.827 30.9993 629.827 28.9708C629.827 26.9423 630.522 25.2616 631.913 23.9285C633.362 22.5376 635.159 21.8421 637.303 21.8421C639.448 21.8421 641.215 22.5376 642.606 23.9285C644.055 25.2616 644.78 26.9423 644.78 28.9708C644.78 30.9993 644.055 32.7091 642.606 34.1001C641.215 35.4331 639.448 36.0996 637.303 36.0996ZM643.302 41.8374V90H631.131V41.8374H643.302ZM666.455 80.0023H687.928V90H652.632V80.1762L673.67 51.835H652.719V41.8374H687.667V51.6612L666.455 80.0023ZM694.222 65.7448C694.222 60.8764 695.178 56.5586 697.091 52.7913C699.061 49.0241 701.698 46.1262 705.002 44.0977C708.364 42.0692 712.102 41.055 716.217 41.055C719.81 41.055 722.94 41.7794 725.606 43.2284C728.33 44.6773 730.503 46.503 732.126 48.7053V41.8374H744.384V90H732.126V82.9582C730.561 85.2185 728.388 87.1021 725.606 88.609C722.882 90.058 719.723 90.7824 716.13 90.7824C712.073 90.7824 708.364 89.7392 705.002 87.6527C701.698 85.5663 699.061 82.6394 697.091 78.8722C695.178 75.047 694.222 70.6712 694.222 65.7448ZM732.126 65.9187C732.126 62.9629 731.547 60.4417 730.387 58.3552C729.228 56.2108 727.663 54.588 725.693 53.4868C723.722 52.3277 721.607 51.7481 719.347 51.7481C717.086 51.7481 715 52.2987 713.087 53.3999C711.175 54.5011 709.61 56.1239 708.393 58.2683C707.233 60.3548 706.654 62.8469 706.654 65.7448C706.654 68.6427 707.233 71.1928 708.393 73.3952C709.61 75.5396 711.175 77.1914 713.087 78.3506C715.058 79.5097 717.144 80.0893 719.347 80.0893C721.607 80.0893 723.722 79.5387 725.693 78.4375C727.663 77.2783 729.228 75.6555 730.387 73.5691C731.547 71.4246 732.126 68.8745 732.126 65.9187ZM768.442 49.3139C770.007 46.7638 772.036 44.7642 774.528 43.3153C777.078 41.8664 779.976 41.1419 783.222 41.1419V53.9215H780.005C776.18 53.9215 773.282 54.8198 771.311 56.6165C769.399 58.4132 768.442 61.5429 768.442 66.0056V90H756.271V41.8374H768.442V49.3139ZM788.29 65.7448C788.29 60.8764 789.246 56.5586 791.159 52.7913C793.129 49.0241 795.795 46.1262 799.157 44.0977C802.518 42.0692 806.256 41.055 810.371 41.055C813.501 41.055 816.486 41.7504 819.326 43.1414C822.166 44.4744 824.426 46.2711 826.107 48.5315V25.6673H838.452V90H826.107V82.8712C824.6 85.2475 822.484 87.1601 819.76 88.609C817.036 90.058 813.878 90.7824 810.284 90.7824C806.227 90.7824 802.518 89.7392 799.157 87.6527C795.795 85.5663 793.129 82.6394 791.159 78.8722C789.246 75.047 788.29 70.6712 788.29 65.7448ZM826.194 65.9187C826.194 62.9629 825.614 60.4417 824.455 58.3552C823.296 56.2108 821.731 54.588 819.76 53.4868C817.79 52.3277 815.674 51.7481 813.414 51.7481C811.154 51.7481 809.067 52.2987 807.155 53.3999C805.242 54.5011 803.677 56.1239 802.46 58.2683C801.301 60.3548 800.721 62.8469 800.721 65.7448C800.721 68.6427 801.301 71.1928 802.46 73.3952C803.677 75.5396 805.242 77.1914 807.155 78.3506C809.125 79.5097 811.212 80.0893 813.414 80.0893C815.674 80.0893 817.79 79.5387 819.76 78.4375C821.731 77.2783 823.296 75.6555 824.455 73.5691C825.614 71.4246 826.194 68.8745 826.194 65.9187Z" fill="black"/>
<path d="M96.3649 15.72L98.8906 64.3603L65.9554 53.7663L96.3649 15.72Z" fill="#583BFF"/>
<line x1="60.2166" y1="59.5947" x2="100.057" y2="5.40045" stroke="black" stroke-width="9.20044"/>
<line x1="99.2965" y1="66.4694" x2="99.3845" y2="8.10206" stroke="black" stroke-width="9.20044"/>
<ellipse cx="78.1802" cy="70.0415" rx="39.8766" ry="13.8127" transform="rotate(12.8787 78.1802 70.0415)" fill="black"/>
<ellipse cx="78.2512" cy="70.215" rx="24.0349" ry="5.04463" transform="rotate(12.8787 78.2512 70.215)" fill="#583BFF"/>
<path d="M87.2194 41.3026C87.8637 40.7674 88.8457 41.0785 89.0644 41.887L89.8059 44.6282C89.8811 44.9064 90.0581 45.1462 90.3017 45.3001L92.7023 46.8171C93.4103 47.2645 93.418 48.2945 92.7166 48.7524L90.3387 50.3047C90.0974 50.4622 89.924 50.7046 89.8528 50.9839L89.1519 53.7358C88.9452 54.5474 87.968 54.8729 87.3158 54.3474L85.1047 52.5655C84.8803 52.3847 84.5962 52.2947 84.3086 52.3134L81.4748 52.4972C80.639 52.5514 80.0274 51.7226 80.3257 50.9399L81.3371 48.2864C81.4397 48.0171 81.4375 47.7191 81.3309 47.4513L80.2804 44.813C79.9706 44.0349 80.5698 43.1971 81.4064 43.239L84.2426 43.3808C84.5304 43.3952 84.8131 43.301 85.0348 43.1169L87.2194 41.3026Z" fill="#F7E28D"/>
<line y1="70.2075" x2="27.3268" y2="70.2075" stroke="black" stroke-width="9.71621"/>
<line x1="48.7025" y1="27.783" x2="24.412" y2="27.783" stroke="black" stroke-width="9.71621"/>
<line x1="45.7877" y1="90.9384" x2="26.3552" y2="90.9384" stroke="black" stroke-width="9.71621"/>
<line x1="22.4687" y1="59.3607" x2="22.4687" y2="22.9249" stroke="black" stroke-width="9.71621"/>
<line x1="22.4687" y1="95.7965" x2="22.4687" y2="59.3607" stroke="black" stroke-width="9.71621"/>
<line x1="22.4687" y1="95.7965" x2="22.4687" y2="59.3607" stroke="black" stroke-width="9.71621"/>
<line y1="-4.85811" x2="27.3268" y2="-4.85811" transform="matrix(-1 0 0 1 163.476 47.843)" stroke="black" stroke-width="9.71621"/>
<line y1="-4.85811" x2="24.2905" y2="-4.85811" transform="matrix(1 -8.74228e-08 -8.74228e-08 -1 114.774 22.7023)" stroke="black" stroke-width="9.71621"/>
<line y1="-4.85811" x2="19.4324" y2="-4.85811" transform="matrix(1 -8.74228e-08 -8.74228e-08 -1 117.689 85.8577)" stroke="black" stroke-width="9.71621"/>
<line y1="-4.85811" x2="36.4358" y2="-4.85811" transform="matrix(4.37114e-08 -1 -1 -4.37114e-08 136.149 59.1381)" stroke="black" stroke-width="9.71621"/>
<line y1="-4.85811" x2="36.4358" y2="-4.85811" transform="matrix(4.37114e-08 -1 -1 -4.37114e-08 136.149 95.5739)" stroke="black" stroke-width="9.71621"/>
<line y1="-4.85811" x2="36.4358" y2="-4.85811" transform="matrix(4.37114e-08 -1 -1 -4.37114e-08 136.149 95.5739)" stroke="black" stroke-width="9.71621"/>
</svg>
